<svg width="14" height="11" viewBox="0 0 14 11" fill="none" xmlns="http://www.w3.org/2000/svg">
<path d="M2.52776 2.50174C2.52776 1.91658 2.76021 1.35539 3.17397 0.941628C3.58774 0.527862 4.14893 0.29541 4.73408 0.29541H9.14673C9.73188 0.29541 10.2931 0.527862 10.7068 0.941628C11.1206 1.35539 11.3531 1.91658 11.3531 2.50174V3.86966C11.8514 3.97138 12.2993 4.24216 12.6209 4.63618C12.9426 5.03019 13.1182 5.52323 13.1181 6.03186V10.4445C13.1181 10.5615 13.0716 10.6738 12.9889 10.7565C12.9061 10.8393 12.7939 10.8858 12.6769 10.8858C12.5598 10.8858 12.4476 10.8393 12.3648 10.7565C12.2821 10.6738 12.2356 10.5615 12.2356 10.4445V8.23818H1.64523V10.4445C1.64523 10.5615 1.59874 10.6738 1.51598 10.7565C1.43323 10.8393 1.32099 10.8858 1.20396 10.8858C1.08693 10.8858 0.974692 10.8393 0.891939 10.7565C0.809186 10.6738 0.762695 10.5615 0.762695 10.4445V6.03186C0.762592 5.52323 0.938223 5.03019 1.25987 4.63618C1.58151 4.24216 2.02941 3.97138 2.52776 3.86966V2.50174ZM1.64523 7.35565H12.2356V6.03186C12.2356 5.68076 12.0961 5.34405 11.8479 5.09579C11.5996 4.84753 11.2629 4.70806 10.9118 4.70806H2.96902C2.61793 4.70806 2.28122 4.84753 2.03296 5.09579C1.7847 5.34405 1.64523 5.68076 1.64523 6.03186V7.35565ZM10.4705 2.50174C10.4705 2.15064 10.3311 1.81393 10.0828 1.56567C9.83454 1.31741 9.49782 1.17794 9.14673 1.17794H4.73408C4.38299 1.17794 4.04628 1.31741 3.79802 1.56567C3.54976 1.81393 3.41029 2.15064 3.41029 2.50174V3.82553H4.29282V3.38427C4.29282 3.26723 4.33931 3.155 4.42206 3.07224C4.50481 2.98949 4.61705 2.943 4.73408 2.943H6.05788C6.17491 2.943 6.28714 2.98949 6.3699 3.07224C6.45265 3.155 6.49914 3.26723 6.49914 3.38427V3.82553H7.38167V3.38427C7.38167 3.26723 7.42816 3.155 7.51091 3.07224C7.59367 2.98949 7.70591 2.943 7.82294 2.943H9.14673C9.26376 2.943 9.376 2.98949 9.45875 3.07224C9.54151 3.155 9.588 3.26723 9.588 3.38427V3.82553H10.4705V2.50174Z" fill="#3451FF"/>
</svg>
