<svg width="18" height="21" viewBox="0 0 18 21" fill="none" xmlns="http://www.w3.org/2000/svg">
<path fill-rule="evenodd" clip-rule="evenodd" d="M8.66432 16.6316L2.73297 19.8811C2.2594 20.1272 1.67597 19.9529 1.41489 19.4875C1.33936 19.3433 1.29861 19.1834 1.2959 19.0206V4.62247C1.2959 1.87647 3.17233 0.778076 5.87256 0.778076H12.2158C14.8337 0.778076 16.7925 1.80325 16.7925 4.4394V19.0206C16.7925 19.2804 16.6893 19.5295 16.5056 19.7132C16.3219 19.8969 16.0728 20 15.8131 20C15.6474 19.9974 15.4845 19.9567 15.3371 19.8811L9.36912 16.6316C9.14921 16.5128 8.88423 16.5128 8.66432 16.6316Z" stroke="black" stroke-width="1.5" stroke-linecap="round" stroke-linejoin="round"/>
<path d="M5.36914 7.32275H12.6643" stroke="black" stroke-width="1.5" stroke-linecap="round" stroke-linejoin="round"/>
</svg>
