<svg width="12" height="12" viewBox="0 0 12 12" fill="none" xmlns="http://www.w3.org/2000/svg">
<g clip-path="url(#clip0_1689_12587)">
<path d="M7.51324 10.7777C7.51841 10.8182 7.52101 10.859 7.52102 10.8999C7.52129 11.0149 7.49665 11.1286 7.4488 11.2332C7.3288 11.491 7.06435 11.6777 6.68213 11.7677C6.66508 11.7721 6.64753 11.7744 6.62991 11.7743H2.99991V11.3299H6.60324C6.7688 11.2866 6.97102 11.2032 7.04769 11.0466C7.07699 10.9764 7.08585 10.8993 7.07324 10.8243C7.05102 10.6299 6.99324 10.1654 6.90547 9.491C6.81769 8.81656 6.69658 7.94878 6.55547 6.92767C6.55099 6.89404 6.55426 6.85984 6.56505 6.82767C6.57584 6.79551 6.59384 6.76624 6.61769 6.74211C6.94213 6.40878 7.32991 5.88989 7.31991 5.281C7.29991 3.95545 5.48102 2.88878 3.98991 2.88878C2.4988 2.88878 0.686579 3.95545 0.661023 5.28211C0.649912 5.85322 0.994356 6.34878 1.28213 6.66434C1.30307 6.68869 1.31849 6.71729 1.32731 6.74817C1.33614 6.77906 1.33816 6.81148 1.33325 6.84322L0.813245 10.831C0.80498 10.894 0.810329 10.9581 0.828932 11.0189C0.847536 11.0797 0.87896 11.1357 0.921085 11.1833C0.96321 11.2309 1.01506 11.2689 1.07312 11.2948C1.13119 11.3207 1.19413 11.3338 1.25769 11.3332H1.66658V11.7777H1.25436C1.12822 11.7777 1.00352 11.7509 0.888537 11.699C0.773558 11.6472 0.670934 11.5714 0.587486 11.4768C0.504037 11.3823 0.441676 11.271 0.404546 11.1504C0.367416 11.0299 0.356367 10.9028 0.372134 10.7777L0.888801 6.88878C0.444357 6.37211 0.209912 5.81656 0.222134 5.27545C0.246579 3.67989 2.26991 2.44434 3.98991 2.44434C5.70991 2.44434 7.74213 3.681 7.76769 5.27545C7.77658 5.84989 7.51658 6.43656 7.01324 6.97545C7.28435 8.96434 7.4688 10.3921 7.51324 10.7777Z" fill="#3451FF"/>
<path d="M11.5191 8.5555C11.54 8.71195 11.5173 8.87112 11.4536 9.0155C11.3347 9.27328 11.0702 9.45995 10.688 9.54995C10.671 9.55434 10.6534 9.55658 10.6358 9.55662H7.80802C7.79024 9.41773 7.77024 9.26995 7.75024 9.11217H10.608C10.7747 9.06884 10.9769 8.9855 11.0525 8.82773C11.0826 8.75778 11.0919 8.6806 11.0791 8.6055C11.0358 8.22106 10.8469 6.75662 10.5647 4.70661C10.5599 4.6729 10.5629 4.63853 10.5735 4.60616C10.5841 4.5738 10.602 4.5443 10.6258 4.51995C10.9513 4.18661 11.338 3.66884 11.3291 3.05995C11.3058 1.73439 9.4869 0.666613 7.99468 0.666613C6.8069 0.666613 5.57691 1.2955 5.00024 2.11106C4.84271 2.07443 4.68318 2.04697 4.52246 2.02884C5.16579 0.928835 6.71135 0.222168 7.99468 0.222168C9.72135 0.222168 11.7469 1.45884 11.7725 3.05217C11.7836 3.7655 11.3858 4.35884 11.018 4.75217C11.2913 6.75106 11.4747 8.1755 11.5191 8.5555Z" fill="#3451FF"/>
<path d="M3.55523 5.33434C3.67796 5.33434 3.77745 5.23484 3.77745 5.11211C3.77745 4.98938 3.67796 4.88989 3.55523 4.88989C3.4325 4.88989 3.33301 4.98938 3.33301 5.11211C3.33301 5.23484 3.4325 5.33434 3.55523 5.33434Z" fill="#3451FF"/>
<path d="M3.94455 9.33002C4.15933 9.33002 4.33344 9.15591 4.33344 8.94113C4.33344 8.72636 4.15933 8.55225 3.94455 8.55225C3.72978 8.55225 3.55566 8.72636 3.55566 8.94113C3.55566 9.15591 3.72978 9.33002 3.94455 9.33002Z" fill="#3451FF"/>
<path d="M2.49967 7.22103C2.59172 7.22103 2.66634 7.14641 2.66634 7.05436C2.66634 6.96231 2.59172 6.8877 2.49967 6.8877C2.40763 6.8877 2.33301 6.96231 2.33301 7.05436C2.33301 7.14641 2.40763 7.22103 2.49967 7.22103Z" fill="#3451FF"/>
<path d="M5.55545 5.11211C5.61681 5.11211 5.66656 5.06237 5.66656 5.001C5.66656 4.93964 5.61681 4.88989 5.55545 4.88989C5.49408 4.88989 5.44434 4.93964 5.44434 5.001C5.44434 5.06237 5.49408 5.11211 5.55545 5.11211Z" fill="#3451FF"/>
<path d="M4.66656 6.99889C4.78929 6.99889 4.88878 6.8994 4.88878 6.77667C4.88878 6.65394 4.78929 6.55444 4.66656 6.55444C4.54383 6.55444 4.44434 6.65394 4.44434 6.77667C4.44434 6.8994 4.54383 6.99889 4.66656 6.99889Z" fill="#3451FF"/>
<path d="M6.72211 2.11561C6.87553 2.11561 6.99989 1.99125 6.99989 1.83784C6.99989 1.68442 6.87553 1.56006 6.72211 1.56006C6.5687 1.56006 6.44434 1.68442 6.44434 1.83784C6.44434 1.99125 6.5687 2.11561 6.72211 2.11561Z" fill="#3451FF"/>
<path d="M9.16667 5.88875C9.25871 5.88875 9.33333 5.81413 9.33333 5.72209C9.33333 5.63004 9.25871 5.55542 9.16667 5.55542C9.07462 5.55542 9 5.63004 9 5.72209C9 5.81413 9.07462 5.88875 9.16667 5.88875Z" fill="#3451FF"/>
<path d="M2.05512 4.44667C2.20853 4.44667 2.3329 4.3223 2.3329 4.16889C2.3329 4.01548 2.20853 3.89111 2.05512 3.89111C1.90171 3.89111 1.77734 4.01548 1.77734 4.16889C1.77734 4.3223 1.90171 4.44667 2.05512 4.44667Z" fill="#3451FF"/>
<path d="M2.44412 10.1065C2.50548 10.1065 2.55523 10.0568 2.55523 9.99539C2.55523 9.93402 2.50548 9.88428 2.44412 9.88428C2.38275 9.88428 2.33301 9.93402 2.33301 9.99539C2.33301 10.0568 2.38275 10.1065 2.44412 10.1065Z" fill="#3451FF"/>
<path d="M5.611 10.3289C5.70305 10.3289 5.77767 10.2543 5.77767 10.1623C5.77767 10.0702 5.70305 9.99561 5.611 9.99561C5.51896 9.99561 5.44434 10.0702 5.44434 10.1623C5.44434 10.2543 5.51896 10.3289 5.611 10.3289Z" fill="#3451FF"/>
<path d="M5.99957 8.44225C6.1223 8.44225 6.22179 8.34275 6.22179 8.22002C6.22179 8.09729 6.1223 7.9978 5.99957 7.9978C5.87684 7.9978 5.77734 8.09729 5.77734 8.22002C5.77734 8.34275 5.87684 8.44225 5.99957 8.44225Z" fill="#3451FF"/>
<path d="M8.27778 7.99769C8.43119 7.99769 8.55556 7.87333 8.55556 7.71992C8.55556 7.5665 8.43119 7.44214 8.27778 7.44214C8.12437 7.44214 8 7.5665 8 7.71992C8 7.87333 8.12437 7.99769 8.27778 7.99769Z" fill="#3451FF"/>
<path d="M10.1111 8.44219C10.1725 8.44219 10.2222 8.39245 10.2222 8.33108C10.2222 8.26972 10.1725 8.21997 10.1111 8.21997C10.0497 8.21997 10 8.26972 10 8.33108C10 8.39245 10.0497 8.44219 10.1111 8.44219Z" fill="#3451FF"/>
<path d="M10.222 3.44767C10.4061 3.44767 10.5553 3.29843 10.5553 3.11434C10.5553 2.93024 10.4061 2.78101 10.222 2.78101C10.0379 2.78101 9.88867 2.93024 9.88867 3.11434C9.88867 3.29843 10.0379 3.44767 10.222 3.44767Z" fill="#3451FF"/>
<path d="M8.11107 2.96432C8.21232 2.96432 8.2944 2.88224 8.2944 2.78099C8.2944 2.67974 8.21232 2.59766 8.11107 2.59766C8.00982 2.59766 7.92773 2.67974 7.92773 2.78099C7.92773 2.88224 8.00982 2.96432 8.11107 2.96432Z" fill="#3451FF"/>
<path d="M8.27799 4.44661C8.37004 4.44661 8.44466 4.372 8.44466 4.27995C8.44466 4.1879 8.37004 4.11328 8.27799 4.11328C8.18595 4.11328 8.11133 4.1879 8.11133 4.27995C8.11133 4.372 8.18595 4.44661 8.27799 4.44661Z" fill="#3451FF"/>
<path d="M8.83344 2.11561C8.98685 2.11561 9.11122 1.99125 9.11122 1.83784C9.11122 1.68442 8.98685 1.56006 8.83344 1.56006C8.68003 1.56006 8.55566 1.68442 8.55566 1.83784C8.55566 1.99125 8.68003 2.11561 8.83344 2.11561Z" fill="#3451FF"/>
<path d="M2.33645 11.3333H2.32089C2.20246 11.3333 2.10645 11.4293 2.10645 11.5477V11.5633C2.10645 11.6817 2.20246 11.7777 2.32089 11.7777H2.33645C2.45488 11.7777 2.55089 11.6817 2.55089 11.5633V11.5477C2.55089 11.4293 2.45488 11.3333 2.33645 11.3333Z" fill="#3451FF"/>
</g>
<defs>
<clipPath id="clip0_1689_12587">
<rect width="12" height="12" fill="white"/>
</clipPath>
</defs>
</svg>
