<svg width="18" height="18" viewBox="0 0 18 18" fill="none" xmlns="http://www.w3.org/2000/svg">
<path d="M12.3954 11.0298C12.564 10.9278 12.746 10.8525 12.9534 10.8693C13.0537 10.8775 13.1352 10.9055 13.1915 10.928C13.2187 10.9388 13.2451 10.9505 13.2641 10.9589C13.2851 10.9682 13.3012 10.9752 13.3178 10.982L13.3188 10.9824C13.4964 11.0556 13.6752 11.1563 13.8633 11.288L13.8659 11.2898L13.8659 11.2898L16.6425 13.2635C16.872 13.4214 16.9664 13.5753 17.0174 13.6773L17.0218 13.6862L17.0259 13.6953C17.1177 13.9018 17.1556 14.0962 17.1556 14.2912C17.1556 14.5766 17.0896 14.8579 16.9628 15.1228C16.8198 15.4276 16.6455 15.6898 16.4232 15.932C16.0397 16.3616 15.6104 16.6689 15.1198 16.8711C13.8649 17.3937 12.3954 17.2123 10.9063 16.577C9.95015 16.1769 8.99174 15.6234 8.06435 14.945L12.3954 11.0298ZM12.3954 11.0298C12.1744 11.1437 11.9902 11.3033 11.8153 11.4781C11.8149 11.4785 11.8145 11.4789 11.8141 11.4792L11.1819 12.1032C11.1816 12.1035 11.1813 12.1038 11.181 12.104C10.9884 12.291 10.6747 12.3448 10.4353 12.2616L10.2391 12.1744C9.93482 12.0093 9.56391 11.7479 9.14085 11.3887C8.7495 11.0544 8.32278 10.6608 7.80205 10.1484C7.39926 9.7373 6.99632 9.30143 6.57661 8.81592C6.20207 8.37754 5.94343 8.01813 5.78739 7.73405L5.70687 7.53274C5.66707 7.37624 5.6607 7.31152 5.6607 7.25023C5.6607 7.06124 5.7259 6.90538 5.85099 6.78029L5.85105 6.78035L5.85698 6.77418L6.48202 6.12414C6.66579 5.93996 6.81486 5.7544 6.9211 5.5747C7.02038 5.41213 7.07558 5.2431 7.07558 5.06512C7.07558 4.91563 7.02691 4.75382 6.97503 4.62932L6.97509 4.62929L6.97201 4.62225C6.89648 4.44961 6.78563 4.27139 6.65819 4.09805L4.71824 1.35537L4.71824 1.35537L4.71707 1.35372C4.59075 1.17688 4.43212 1.04355 4.23669 0.952345L4.23674 0.952229L4.22706 0.947991C4.04584 0.868707 3.84411 0.819299 3.63349 0.819299C3.03169 0.819299 2.50185 1.08621 2.03402 1.54318C1.60771 1.94261 1.3023 2.38764 1.10977 2.87765C0.911707 3.36889 0.819299 3.88475 0.819299 4.42884C0.819299 5.27552 1.0193 6.17895 1.40636 7.0938L1.40657 7.0943C1.79785 8.01599 2.34262 8.96559 3.0293 9.90977C3.71236 10.849 4.4886 11.7616 5.34097 12.6225L5.34095 12.6225L5.34405 12.6256C6.19644 13.4694 7.1171 14.2538 8.06415 14.9449L12.3954 11.0298ZM10.1465 11.6798L10.0737 11.9893L10.9059 12.2464L11.1319 11.6603L11.1494 11.6149L11.5502 11.2196L11.5503 11.2196L11.5524 11.2175C11.7903 10.9796 12.0059 10.8181 12.1978 10.7189L12.2126 10.7112L12.2267 10.7025C12.5585 10.4974 12.9953 10.4492 13.4613 10.6417C13.6499 10.7217 13.8565 10.8319 14.0814 10.9893C14.0819 10.9896 14.0823 10.9899 14.0827 10.9902L16.8597 12.9642L16.8596 12.9643L16.8682 12.9701C17.1127 13.1353 17.2798 13.3374 17.3782 13.5688C17.485 13.8408 17.53 14.078 17.53 14.3079C17.53 14.6428 17.4533 14.9819 17.303 15.3038C17.1457 15.6409 16.9528 15.93 16.7071 16.1981L16.7051 16.2002C16.2663 16.6852 15.8004 17.0201 15.2667 17.2351L15.2656 17.2355C14.7404 17.4487 14.1682 17.5635 13.5628 17.5635C12.6864 17.5635 11.7481 17.354 10.7607 16.9365C9.7912 16.5244 8.80713 15.9561 7.84198 15.261C6.88061 14.5542 5.95164 13.7651 5.07165 12.9018C4.20097 12.0226 3.41246 11.0944 2.71441 10.142C2.01045 9.15949 1.45055 8.18378 1.05534 7.2483C0.638716 6.25464 0.436515 5.30756 0.436515 4.42884C0.436515 3.82915 0.543938 3.26385 0.749549 2.7382C0.95902 2.20729 1.29755 1.70843 1.76314 1.27336L1.76326 1.27348L1.77175 1.26509C2.3455 0.698794 2.97561 0.436515 3.63349 0.436515C3.89649 0.436515 4.16783 0.497994 4.39367 0.604269L4.39366 0.60428L4.39661 0.60564C4.65586 0.725296 4.86731 0.900463 5.02005 1.12958L5.0199 1.12968L5.02724 1.14003L6.96957 3.8777L6.96955 3.87771L6.97203 3.88114C7.13166 4.10158 7.2455 4.30377 7.32115 4.49636L7.32391 4.50338L7.32691 4.5103C7.41662 4.71732 7.45837 4.90937 7.45837 5.08186C7.45837 5.31243 7.39236 5.54539 7.25267 5.77821L7.24893 5.78444L7.24539 5.7908C7.1453 5.97096 6.98137 6.18177 6.75738 6.40576L6.75731 6.40568L6.7508 6.41249L6.18149 7.00691L5.99936 7.19707L6.08263 7.44688C6.10086 7.50157 6.12052 7.54086 6.13057 7.56094L6.13143 7.56265L6.13685 7.57349L6.14286 7.58401C6.26015 7.78926 6.47836 8.11293 6.87608 8.57981L6.87605 8.57983L6.87986 8.58419C7.29231 9.05556 7.68352 9.48946 8.07687 9.89137L8.07682 9.89143L8.08282 9.89734C8.57866 10.3848 8.99912 10.78 9.39854 11.1101C9.70264 11.3661 9.94894 11.55 10.1465 11.6798Z" stroke="#888888" stroke-width="0.87303"/>
<path d="M14.4419 6.67971C14.3398 6.67971 14.2505 6.59049 14.2505 6.48832C14.2505 6.22834 14.1336 5.91836 13.9865 5.63985C13.8304 5.3442 13.6069 5.02133 13.3288 4.72465C12.8019 4.16216 12.1501 3.74947 11.5117 3.74947C11.4095 3.74947 11.3203 3.66026 11.3203 3.55808C11.3203 3.45591 11.4095 3.36669 11.5117 3.36669C12.166 3.36669 12.9123 3.72077 13.604 4.45895C14.2625 5.16521 14.6333 5.97564 14.6333 6.48832C14.6333 6.59049 14.5441 6.67971 14.4419 6.67971Z" stroke="#888888" stroke-width="0.87303"/>
<path d="M17.3722 6.67976C17.27 6.67976 17.1808 6.59055 17.1808 6.48837C17.1808 3.35892 14.6411 0.819299 11.5117 0.819299C11.4095 0.819299 11.3203 0.730082 11.3203 0.627907C11.3203 0.525732 11.4095 0.436515 11.5117 0.436515C14.8455 0.436515 17.5636 3.15457 17.5636 6.48837C17.5636 6.59055 17.4743 6.67976 17.3722 6.67976Z" stroke="#888888" stroke-width="0.87303"/>
</svg>
