<svg width="16" height="16" viewBox="0 0 16 16" fill="none" xmlns="http://www.w3.org/2000/svg">
<g opacity="0.5" clip-path="url(#clip0_649_2579)">
<path d="M8 0C3.58172 0 0 3.58172 0 8C0 12.4183 3.58172 16 8 16C12.4183 16 16 12.4183 16 8C16 3.58172 12.4183 0 8 0ZM7.98379 4.44833C8.72169 4.45804 9.33289 5.05875 9.53596 5.82421C9.61339 6.13653 9.62212 6.45339 9.54407 6.78419C9.42637 7.24991 9.19076 7.70483 8.75176 7.98429L9.39157 8.28824L10.9119 9.02431C11.0612 9.08831 11.1358 9.21629 11.1358 9.40831V10.8799C11.1358 11.1834 11.1599 11.4452 10.7837 11.5522H5.18389C4.82211 11.547 4.80712 11.1805 4.8156 10.8799V9.40831C4.8156 9.21631 4.89572 9.08277 5.05572 9.00809L6.6236 8.28824L7.23201 8C6.95468 7.81867 6.73599 7.56823 6.57599 7.24823C6.38385 6.82577 6.30768 6.27737 6.44783 5.77608C6.625 5.09659 7.17988 4.48611 7.98379 4.44833ZM5.37588 5.12007C5.61056 5.12007 5.82371 5.1896 6.01569 5.32827C5.96245 5.47757 5.91736 5.63505 5.87992 5.8004C5.8426 5.96571 5.82369 6.1388 5.82369 6.32015C5.82369 6.58683 5.86097 6.8428 5.93564 7.08815C6.01029 7.33347 6.11711 7.55771 6.25581 7.76039C6.1918 7.84571 6.10665 7.92029 5.99997 7.98429L4.81557 8.52836C4.65557 8.61369 4.52759 8.73337 4.43159 8.88805C4.33559 9.04272 4.28772 9.21631 4.28772 9.40832V10.8799H3.12004C2.95064 10.8773 2.83623 10.7066 2.83179 10.5284V9.13628C2.83179 8.97628 2.89024 8.86944 3.00757 8.81611L4.78369 8C4.3248 7.71792 4.10341 7.20807 4.08005 6.64032C4.08813 5.94083 4.54661 5.17817 5.37588 5.12007ZM10.6236 5.12007C11.3608 5.13172 11.8933 5.86261 11.92 6.64033C11.9159 7.15493 11.7151 7.65184 11.2477 7.98431L12.9919 8.81612C13.1092 8.88012 13.1677 8.98695 13.1677 9.13629V10.5284C13.1659 10.6936 13.0768 10.8631 12.88 10.8799H11.6799V9.40831C11.6799 9.21631 11.632 9.04272 11.536 8.88804C11.44 8.73336 11.312 8.61369 11.152 8.52836C10.6546 8.29717 10.0834 8.13124 9.71176 7.74417C9.98909 7.31751 10.1277 6.84283 10.1277 6.32015C10.1277 5.98948 10.0692 5.66396 9.95188 5.34396C10.1446 5.21675 10.3727 5.12364 10.6236 5.12007Z" fill="#888888"/>
</g>
<defs>
<clipPath id="clip0_649_2579">
<rect width="16" height="16" fill="white"/>
</clipPath>
</defs>
</svg>
