<svg width="13" height="13" viewBox="0 0 13 13" fill="none" xmlns="http://www.w3.org/2000/svg">
<path d="M6.5 8.125C7.39746 8.125 8.125 7.39746 8.125 6.5C8.125 5.60254 7.39746 4.875 6.5 4.875C5.60254 4.875 4.875 5.60254 4.875 6.5C4.875 7.39746 5.60254 8.125 6.5 8.125Z" fill="#888888"/>
<path d="M12.5692 6.36188C12.0914 5.12592 11.2619 4.05706 10.1832 3.28741C9.10454 2.51776 7.82399 2.08105 6.49983 2.03125C5.17566 2.08105 3.89511 2.51776 2.81644 3.28741C1.73777 4.05706 0.908267 5.12592 0.430452 6.36188C0.398183 6.45113 0.398183 6.54887 0.430452 6.63812C0.908267 7.87408 1.73777 8.94294 2.81644 9.71259C3.89511 10.4822 5.17566 10.919 6.49983 10.9688C7.82399 10.919 9.10454 10.4822 10.1832 9.71259C11.2619 8.94294 12.0914 7.87408 12.5692 6.63812C12.6015 6.54887 12.6015 6.45113 12.5692 6.36188ZM6.49983 9.14062C5.97756 9.14062 5.46702 8.98575 5.03277 8.6956C4.59853 8.40544 4.26007 7.99303 4.06021 7.51052C3.86035 7.02801 3.80805 6.49707 3.90994 5.98484C4.01183 5.47261 4.26332 5.00209 4.63262 4.6328C5.00192 4.2635 5.47244 4.012 5.98467 3.91011C6.4969 3.80822 7.02784 3.86052 7.51035 4.06038C7.99286 4.26024 8.40527 4.5987 8.69543 5.03295C8.98558 5.4672 9.14045 5.97773 9.14045 6.5C9.13938 7.20001 8.86082 7.87104 8.36584 8.36602C7.87086 8.861 7.19983 9.13955 6.49983 9.14062Z" fill="#888888"/>
</svg>
