<svg width="16" height="16" viewBox="0 0 16 16" fill="none" xmlns="http://www.w3.org/2000/svg">
<path d="M8 0C3.58172 0 0 3.58172 0 8C0 12.4183 3.58172 16 8 16C12.4183 16 16 12.4183 16 8C16 3.58172 12.4183 0 8 0ZM5.5343 4.26022L8 6.727L10.4643 4.26022C10.8158 3.90875 11.3856 3.90875 11.7371 4.26022C12.0886 4.6117 12.0886 5.18154 11.7371 5.53302L9.272 8.001L11.7371 10.47C12.0886 10.8215 12.0886 11.3913 11.7371 11.7428C11.3856 12.0943 10.8158 12.0943 10.4643 11.7428L8 9.275L5.5343 11.7428C5.18283 12.0943 4.61298 12.0943 4.26151 11.7428C3.91004 11.3913 3.91004 10.8215 4.26151 10.47L6.728 8.001L4.26151 5.53302C3.91004 5.18154 3.91004 4.6117 4.26151 4.26022C4.61298 3.90875 5.18283 3.90875 5.5343 4.26022Z" fill="#888888"/>
</svg>
