<svg width="13" height="13" viewBox="0 0 13 13" fill="none" xmlns="http://www.w3.org/2000/svg">
<path d="M0.250001 4.62126C0.249671 4.12888 0.34647 3.64128 0.534855 3.18637C0.72324 2.73146 0.999509 2.31818 1.34784 1.97019C1.69618 1.62221 2.10974 1.34635 2.56483 1.15842C3.01993 0.970494 3.50763 0.874183 4 0.875005H9C11.0706 0.875005 12.75 2.55938 12.75 4.62126V12.125H4C1.92938 12.125 0.250001 10.4406 0.250001 8.37876V4.62126ZM11.5 10.875V4.62126C11.4983 3.95907 11.2343 3.32453 10.7657 2.85664C10.2971 2.38875 9.66219 2.12566 9 2.12501H4C3.67178 2.12418 3.34663 2.18816 3.04319 2.31327C2.73975 2.43838 2.46399 2.62216 2.23173 2.85408C1.99946 3.08599 1.81527 3.36147 1.6897 3.66472C1.56414 3.96798 1.49967 4.29303 1.5 4.62126V8.37876C1.50165 9.04094 1.7657 9.67548 2.23429 10.1434C2.70288 10.6113 3.33781 10.8743 4 10.875H11.5ZM7.75 5.87501H9V7.12501H7.75V5.87501ZM4 5.87501H5.25V7.12501H4V5.87501Z" fill="#3451FF"/>
</svg>
