<svg width="14" height="14" viewBox="0 0 14 14" fill="none" xmlns="http://www.w3.org/2000/svg">
<path fill-rule="evenodd" clip-rule="evenodd" d="M5.75834 0.210071C6.05695 0.120494 6.37236 0.101963 6.67941 0.155959C6.98645 0.209954 7.27662 0.334981 7.52675 0.521058C7.77688 0.707135 7.98005 0.94911 8.12004 1.22767C8.26003 1.50622 8.33296 1.81365 8.33301 2.1254V11.8747C8.33296 12.1865 8.26003 12.4939 8.12004 12.7725C7.98005 13.051 7.77688 13.293 7.52675 13.4791C7.27662 13.6652 6.98645 13.7902 6.67941 13.8442C6.37236 13.8982 6.05695 13.8796 5.75834 13.7901L1.75834 12.5901C1.34641 12.4665 0.985281 12.2134 0.728529 11.8684C0.471777 11.5234 0.333078 11.1048 0.333008 10.6747V3.3254C0.333078 2.89534 0.471777 2.47675 0.728529 2.13173C0.985281 1.78671 1.34641 1.53364 1.75834 1.41007L5.75834 0.210071ZM8.99967 1.66674C8.99967 1.48993 9.06991 1.32036 9.19494 1.19533C9.31996 1.07031 9.48953 1.00007 9.66634 1.00007H11.6663C12.1968 1.00007 12.7055 1.21078 13.0806 1.58586C13.4556 1.96093 13.6663 2.46964 13.6663 3.00007V3.66674C13.6663 3.84355 13.5961 4.01312 13.4711 4.13814C13.3461 4.26317 13.1765 4.3334 12.9997 4.3334C12.8229 4.3334 12.6533 4.26317 12.5283 4.13814C12.4032 4.01312 12.333 3.84355 12.333 3.66674V3.00007C12.333 2.82326 12.2628 2.65369 12.1377 2.52867C12.0127 2.40364 11.8432 2.3334 11.6663 2.3334H9.66634C9.48953 2.3334 9.31996 2.26317 9.19494 2.13814C9.06991 2.01312 8.99967 1.84355 8.99967 1.66674ZM12.9997 9.66674C13.1765 9.66674 13.3461 9.73697 13.4711 9.862C13.5961 9.98702 13.6663 10.1566 13.6663 10.3334V11.0001C13.6663 11.5305 13.4556 12.0392 13.0806 12.4143C12.7055 12.7894 12.1968 13.0001 11.6663 13.0001H9.66634C9.48953 13.0001 9.31996 12.9298 9.19494 12.8048C9.06991 12.6798 8.99967 12.5102 8.99967 12.3334C8.99967 12.1566 9.06991 11.987 9.19494 11.862C9.31996 11.737 9.48953 11.6667 9.66634 11.6667H11.6663C11.8432 11.6667 12.0127 11.5965 12.1377 11.4715C12.2628 11.3465 12.333 11.1769 12.333 11.0001V10.3334C12.333 10.1566 12.4032 9.98702 12.5283 9.862C12.6533 9.73697 12.8229 9.66674 12.9997 9.66674ZM4.99967 6.3334C4.82286 6.3334 4.65329 6.40364 4.52827 6.52867C4.40325 6.65369 4.33301 6.82326 4.33301 7.00007C4.33301 7.17688 4.40325 7.34645 4.52827 7.47148C4.65329 7.5965 4.82286 7.66674 4.99967 7.66674H5.00034C5.17715 7.66674 5.34672 7.5965 5.47175 7.47148C5.59677 7.34645 5.66701 7.17688 5.66701 7.00007C5.66701 6.82326 5.59677 6.65369 5.47175 6.52867C5.34672 6.40364 5.17715 6.3334 5.00034 6.3334H4.99967Z" fill="#888888"/>
<path d="M12.9993 7.00008H9.66602M9.66602 7.00008L10.9993 5.66675M9.66602 7.00008L10.9993 8.33341" stroke="#888888" stroke-linecap="round" stroke-linejoin="round"/>
</svg>
