<svg width="12" height="12" viewBox="0 0 12 12" fill="none" xmlns="http://www.w3.org/2000/svg">
<g clip-path="url(#clip0_1689_12558)">
<path d="M11.9558 7.9311C11.9062 7.85575 11.8221 7.8104 11.7319 7.8104H11.1405V7.80773C11.1405 5.48695 9.25227 3.59889 6.93135 3.59889H6.92863V3.29353C6.92863 2.80495 6.53104 2.40747 6.0423 2.40747H5.95757C5.46885 2.40747 5.07123 2.80495 5.07123 3.29353V3.59889H5.06851C2.74759 3.59889 0.859397 5.48697 0.859397 7.80773V7.8104H0.268115C0.177928 7.8104 0.0937638 7.85575 0.0441701 7.9311C-0.00542367 8.00643 -0.0138143 8.10166 0.0218341 8.18451C0.390037 9.03979 1.22964 9.59245 2.16088 9.59245H9.83917C10.2953 9.59245 10.738 9.45981 11.1195 9.20894C11.5007 8.95818 11.7977 8.60395 11.9782 8.18451C12.0138 8.10163 12.0054 8.00643 11.9558 7.9311ZM5.60751 3.29353C5.60751 3.10061 5.76456 2.94365 5.95764 2.94365H6.04237C6.23542 2.94365 6.3925 3.10059 6.3925 3.29353V3.59889H5.60751V3.29353ZM1.39572 7.80773C1.39572 5.78261 3.0434 4.13507 5.06863 4.13507H5.33943H6.66058H6.93137C8.95663 4.13507 10.6043 5.78263 10.6043 7.80773V7.8104H1.39572V7.80773ZM10.8248 8.76093C10.5311 8.95413 10.1903 9.05624 9.83915 9.05624H2.16086C1.59109 9.05624 1.0659 8.78749 0.732061 8.3466H1.12762H10.8724H11.268C11.1457 8.50804 10.9963 8.6481 10.8248 8.76093Z" fill="#888888"/>
<path d="M5.37029 4.61768H5.06896C3.62343 4.61768 2.35511 5.59366 1.9846 6.99105C1.94666 7.13416 2.03193 7.28095 2.17506 7.31889C2.19805 7.32501 2.22121 7.32789 2.24394 7.32789C2.36258 7.32789 2.47107 7.24854 2.5029 7.12846C2.81115 5.96585 3.86633 5.15386 5.06896 5.15386H5.37029C5.51835 5.15386 5.63839 5.03383 5.63839 4.88575C5.63837 4.7377 5.51832 4.61768 5.37029 4.61768Z" fill="#888888"/>
<path d="M6.33559 4.61768H6.21146C6.06341 4.61768 5.94336 4.7377 5.94336 4.88578C5.94336 5.03386 6.06341 5.15388 6.21146 5.15388H6.33559C6.48364 5.15388 6.60369 5.03386 6.60369 4.88578C6.60369 4.7377 6.48364 4.61768 6.33559 4.61768Z" fill="#888888"/>
</g>
<defs>
<clipPath id="clip0_1689_12558">
<rect width="12" height="12" fill="white"/>
</clipPath>
</defs>
</svg>
