<svg width="22" height="22" viewBox="0 0 22 22" fill="none" xmlns="http://www.w3.org/2000/svg">
<path d="M11.0243 22C10.8778 21.9971 10.7377 21.9327 10.633 21.8202C10.633 21.8202 2.14737 12.5716 1.94613 12.2978C-1.13957 8.61967 -0.144541 4.41839 2.08402 2.08071C4.22313 -0.175221 7.8641 -1.10702 11.0057 1.9295C11.9013 1.00904 13.0196 0.390831 14.227 0.148771C15.4343 -0.0932883 16.6798 0.0510387 17.8144 0.564498C18.8309 0.992681 19.7335 1.69303 20.44 2.6017C21.1465 3.51037 21.6345 4.59854 21.8593 5.76693C22.0842 6.93535 22.0389 8.1469 21.7275 9.29122C21.4161 10.4355 20.8485 11.4761 20.0765 12.3183L11.4194 21.8202C11.314 21.9341 11.1723 21.9985 11.0243 22ZM6.62684 1.247C5.21726 1.26726 3.86857 1.88023 2.85916 2.95938C0.995826 4.90064 0.190861 8.39489 2.766 11.4682C2.807 11.5091 9.33242 18.6692 11.0057 20.5206L19.2864 11.4519C19.7932 10.8993 20.1951 10.2421 20.4689 9.51816C20.7427 8.79422 20.8829 8.01796 20.8814 7.23423C20.8946 6.03241 20.5676 4.85572 19.9456 3.86617C19.3236 2.87659 18.437 2.12289 17.4081 1.70881C16.3956 1.25069 15.2785 1.14814 14.2106 1.41529C13.1427 1.68245 12.1766 2.30614 11.4454 3.20051C11.3955 3.26332 11.3344 3.31437 11.266 3.35058C11.1975 3.38683 11.1231 3.40747 11.0472 3.41127C10.9713 3.41511 10.8955 3.40203 10.8243 3.37281C10.7531 3.34363 10.688 3.29892 10.633 3.24138C10.123 2.62905 9.505 2.13662 8.81638 1.7938C8.12777 1.45099 7.38291 1.26497 6.62684 1.247Z" fill="#3451FF"/>
<path d="M6.62684 1.247C5.21726 1.26726 3.86857 1.88023 2.85916 2.95938C0.995826 4.90064 0.190861 8.39489 2.766 11.4682C2.807 11.5091 9.33242 18.6692 11.0057 20.5206L19.2864 11.4519C19.7932 10.8993 20.1951 10.2421 20.4689 9.51816C20.7427 8.79422 20.8829 8.01796 20.8814 7.23423C20.8946 6.03241 20.5676 4.85572 19.9456 3.86617C19.3236 2.87659 18.437 2.12289 17.4081 1.70881C16.3956 1.25069 15.2785 1.14814 14.2106 1.41529C13.1427 1.68245 12.1766 2.30614 11.4454 3.20051C11.3955 3.26332 11.3344 3.31437 11.266 3.35058C11.1975 3.38683 11.1231 3.40747 11.0472 3.41127C10.9713 3.41511 10.8955 3.40203 10.8243 3.37281C10.7531 3.34363 10.688 3.29892 10.633 3.24138C10.123 2.62905 9.505 2.13662 8.81638 1.7938C8.12777 1.45099 7.38291 1.26497 6.62684 1.247Z" fill="#3451FF"/>
</svg>
