<svg width="17" height="17" viewBox="0 0 17 17" fill="none" xmlns="http://www.w3.org/2000/svg">
<mask id="mask0_649_2537" style="mask-type:luminance" maskUnits="userSpaceOnUse" x="1" y="1" width="15" height="15">
<path fill-rule="evenodd" clip-rule="evenodd" d="M8.44145 2.47263C7.32318 1.76063 5.83766 1.56393 4.55433 1.97811C1.76278 2.88472 0.896228 5.9495 1.67131 8.38815C2.8673 12.2182 7.97516 15.0752 8.1918 15.1951C8.26883 15.238 8.35411 15.2595 8.43939 15.2595C8.52467 15.2595 8.60926 15.2387 8.68629 15.1964C8.90155 15.078 13.9723 12.2633 15.2082 8.38884C15.2088 8.38884 15.2088 8.38815 15.2088 8.38815C15.9846 5.9488 15.1208 2.88334 12.332 1.97811C11.0226 1.55146 9.59549 1.73916 8.44145 2.47263ZM12.0157 2.96714C14.2721 3.69992 14.8388 6.14412 14.2261 8.07163C13.2618 11.0928 9.45244 13.5356 8.44008 14.1402C7.42428 13.5293 3.58737 11.0595 2.6541 8.0744C2.04132 6.14481 2.61008 3.70061 4.87001 2.96714C5.96489 2.61322 7.24203 2.82862 8.12372 3.51569C8.30803 3.65836 8.56387 3.66113 8.74956 3.51984C9.68352 2.81269 10.9036 2.60561 12.0157 2.96714Z" fill="white"/>
</mask>
<g mask="url(#mask0_649_2537)">
<rect width="15.36" height="15.436" transform="matrix(-1 0 0 1 16.1201 0.788086)" fill="#131313"/>
</g>
</svg>
