<svg width="13" height="12" viewBox="0 0 13 12" fill="none" xmlns="http://www.w3.org/2000/svg">
<path d="M7.04199 0.5L7.04253 2.031C9.00239 2.25682 10.5557 3.69081 10.8001 5.5H12.4587V6.5L10.8001 6.5005C10.5555 8.30945 9.00223 9.7432 7.04253 9.969L7.04199 11.5H5.95866V9.96905C3.99871 9.74345 2.44522 8.3096 2.20058 6.5005L0.541992 6.5V5.5H2.20052C2.44493 3.69064 3.99852 2.25656 5.95866 2.03095V0.5H7.04199ZM6.50033 5C5.902 5 5.41699 5.4477 5.41699 6C5.41699 6.5523 5.902 7 6.50033 7C7.09865 7 7.58366 6.5523 7.58366 6C7.58366 5.4477 7.09865 5 6.50033 5Z" fill="#888888"/>
</svg>
