<svg width="24" height="26" viewBox="0 0 24 26" fill="none" xmlns="http://www.w3.org/2000/svg">
<path fill-rule="evenodd" clip-rule="evenodd" d="M8.68326 23.2332V19.6554C8.68323 18.7453 9.42514 18.0059 10.3444 17.9998H13.7114C14.635 17.9998 15.3838 18.741 15.3838 19.6554V23.2443C15.3835 24.017 16.0065 24.6485 16.7867 24.6666H19.0314C21.2691 24.6666 23.0832 22.8707 23.0832 20.6554V10.4774C23.0712 9.60588 22.6579 8.78749 21.9608 8.25512L14.2838 2.13277C12.9389 1.06675 11.0271 1.06675 9.68216 2.13277L2.03887 8.26623C1.33914 8.79644 0.925122 9.6162 0.916504 10.4885V20.6554C0.916504 22.8707 2.73053 24.6666 4.96823 24.6666H7.21296C8.01258 24.6666 8.66081 24.0248 8.66081 23.2332" fill="#3451FF"/>
<path d="M8.68326 23.2332V19.6554C8.68323 18.7453 9.42514 18.0059 10.3444 17.9998H13.7114C14.635 17.9998 15.3838 18.741 15.3838 19.6554V19.6554V23.2443C15.3835 24.017 16.0065 24.6485 16.7867 24.6666H19.0314C21.2692 24.6666 23.0832 22.8707 23.0832 20.6554V20.6554V10.4774C23.0712 9.60588 22.6579 8.78749 21.9608 8.25512L14.2838 2.13277C12.9389 1.06675 11.0271 1.06675 9.68216 2.13277L2.03887 8.26623C1.33914 8.79644 0.925122 9.6162 0.916504 10.4885V20.6554C0.916504 22.8707 2.73053 24.6666 4.96823 24.6666H7.21296C8.01258 24.6666 8.66081 24.0248 8.66081 23.2332V23.2332" stroke="#3451FF" stroke-width="1.5" stroke-linecap="round" stroke-linejoin="round"/>
</svg>
