<svg width="24" height="26" viewBox="0 0 24 26" fill="none" xmlns="http://www.w3.org/2000/svg">
<path d="M8.68338 23.2335V19.6556C8.68336 18.7456 9.42526 18.0061 10.3445 18H13.7116C14.6352 18 15.3839 18.7413 15.3839 19.6556V19.6556V23.2446C15.3837 24.0172 16.0066 24.6487 16.7868 24.6668H19.0316C21.2693 24.6668 23.0833 22.871 23.0833 20.6556V20.6556V10.4776C23.0713 9.60613 22.658 8.78774 21.9609 8.25537L14.284 2.13301C12.9391 1.06699 11.0272 1.06699 9.68228 2.13301L2.03899 8.26648C1.33926 8.79669 0.925244 9.61644 0.916626 10.4887V20.6556C0.916626 22.871 2.73065 24.6668 4.96836 24.6668H7.21308C8.01271 24.6668 8.66093 24.0251 8.66093 23.2335V23.2335" stroke="#888888" stroke-width="1.5" stroke-linecap="round" stroke-linejoin="round"/>
</svg>
