<svg width="19" height="22" viewBox="0 0 19 22" fill="none" xmlns="http://www.w3.org/2000/svg">
<path d="M13.5712 9.62526C13.5712 10.7193 13.1423 11.7684 12.3788 12.542C11.6153 13.3156 10.5797 13.7502 9.5 13.7502C8.42026 13.7502 7.38474 13.3156 6.62124 12.542C5.85775 11.7684 5.42882 10.7193 5.42882 9.62526C5.42882 8.53126 5.85775 7.48207 6.62124 6.7085C7.38474 5.93493 8.42026 5.50034 9.5 5.50034C10.5797 5.50034 11.6153 5.93493 12.3788 6.7085C13.1423 7.48207 13.5712 8.53126 13.5712 9.62526ZM12.2141 9.62526C12.2141 8.89593 11.9282 8.19647 11.4192 7.68075C10.9102 7.16504 10.2198 6.87531 9.5 6.87531C8.78017 6.87531 8.08982 7.16504 7.58083 7.68075C7.07183 8.19647 6.78588 8.89593 6.78588 9.62526C6.78588 10.3546 7.07183 11.054 7.58083 11.5698C8.08982 12.0855 8.78017 12.3752 9.5 12.3752C10.2198 12.3752 10.9102 12.0855 11.4192 11.5698C11.9282 11.054 12.2141 10.3546 12.2141 9.62526ZM16.2174 16.4382C17.9991 14.6321 19 12.183 19 9.62938C19 7.07577 17.9991 4.62667 16.2174 2.82052C15.3355 1.92635 14.2883 1.21701 13.1357 0.733055C11.9831 0.249096 10.7477 0 9.5 0C8.25234 0 7.0169 0.249096 5.86429 0.733055C4.71168 1.21701 3.66449 1.92635 2.78256 2.82052C1.00087 4.62667 0 7.07577 0 9.62938C0 12.183 1.00087 14.6321 2.78256 16.4382L4.84665 18.4993L7.61912 21.2286L7.7996 21.3909C8.85133 22.2544 10.3916 22.1994 11.3822 21.2286L14.6867 17.97L16.2174 16.4382ZM3.73929 3.78988C4.49567 3.02317 5.39374 2.41496 6.38218 2C7.37062 1.58504 8.43007 1.37146 9.5 1.37146C10.5699 1.37146 11.6294 1.58504 12.6178 2C13.6063 2.41496 14.5043 3.02317 15.2607 3.78988C16.7463 5.29609 17.6005 7.32537 17.645 9.45428C17.6895 11.5832 16.9209 13.6473 15.4996 15.2159L15.2607 15.4689L13.468 17.2618L10.4418 20.2428L10.3142 20.3528C10.0796 20.5319 9.79379 20.6288 9.5 20.6288C9.20621 20.6288 8.9204 20.5319 8.68576 20.3528L8.55956 20.2428L4.51552 16.2485L3.73929 15.4689L3.50044 15.2173C2.07912 13.6487 1.31053 11.5846 1.35503 9.45566C1.39953 7.32674 2.25369 5.29609 3.73929 3.78988Z" fill="#888888"/>
</svg>
