<svg width="19" height="22" viewBox="0 0 19 22" fill="none" xmlns="http://www.w3.org/2000/svg">
<path fill-rule="evenodd" clip-rule="evenodd" d="M19 9.62938C19 12.183 17.9991 14.6321 16.2174 16.4382L14.6867 17.97L11.3822 21.2286C10.3916 22.1994 8.85133 22.2544 7.7996 21.3909L7.61912 21.2286L4.84665 18.4993L2.78256 16.4382C1.00087 14.6321 0 12.183 0 9.62938C0 7.07577 1.00087 4.62667 2.78256 2.82052C3.66449 1.92635 4.71168 1.21701 5.86429 0.733055C7.0169 0.249096 8.25234 0 9.5 0C10.7477 0 11.9831 0.249096 13.1357 0.733055C14.2883 1.21701 15.3355 1.92635 16.2174 2.82052C17.9991 4.62667 19 7.07577 19 9.62938ZM11.6333 7.80544C12.1423 8.32115 12.4282 9.02061 12.4282 9.74994C12.4282 10.4793 12.1423 11.1787 11.6333 11.6944C11.1243 12.2102 10.4339 12.4999 9.71412 12.4999C8.99429 12.4999 8.30394 12.2102 7.79495 11.6944C7.28595 11.1787 7 10.4793 7 9.74994C7 9.02061 7.28595 8.32115 7.79495 7.80544C8.30394 7.28973 8.99429 7 9.71412 7C10.4339 7 11.1243 7.28973 11.6333 7.80544Z" fill="#3451FF"/>
</svg>
