<svg width="10" height="10" viewBox="0 0 10 10" fill="none" xmlns="http://www.w3.org/2000/svg">
<g clip-path="url(#clip0_131_5850)">
<path d="M7.99072 1.23879C7.19189 0.439942 6.12976 0 5.00003 0C3.8703 0 2.80815 0.439942 2.00932 1.23879C1.21047 2.03766 0.770531 3.09977 0.770531 4.22948C0.770531 6.51488 2.93143 8.41576 4.09235 9.43697C4.25368 9.57889 4.393 9.70144 4.504 9.80512C4.64306 9.93502 4.82155 9.99998 5.00001 9.99998C5.17851 9.99998 5.35697 9.93502 5.49605 9.80512C5.60704 9.70142 5.74636 9.57889 5.90769 9.43697C7.06861 8.41574 9.22951 6.51488 9.22951 4.22948C9.22949 3.09977 8.78957 2.03766 7.99072 1.23879ZM5.52077 8.99717C5.35591 9.14219 5.21355 9.26744 5.09616 9.37707C5.04224 9.4274 4.95779 9.42742 4.90384 9.37707C4.78648 9.2674 4.64409 9.14217 4.47923 8.99715C3.38782 8.03709 1.35627 6.24999 1.35627 4.2295C1.35627 2.22036 2.99083 0.585802 4.99999 0.585802C7.00914 0.585802 8.64369 2.22036 8.64369 4.2295C8.64371 6.24999 6.61218 8.03709 5.52077 8.99717Z" fill="white"/>
<path d="M5.00003 2.20605C3.97227 2.20605 3.13614 3.04217 3.13614 4.06993C3.13614 5.09768 3.97227 5.9338 5.00003 5.9338C6.02779 5.9338 6.8639 5.09768 6.8639 4.06993C6.8639 3.04217 6.02779 2.20605 5.00003 2.20605ZM5.00003 5.34799C4.29528 5.34799 3.72192 4.77463 3.72192 4.06991C3.72192 3.36518 4.29528 2.79182 5.00003 2.79182C5.70478 2.79182 6.27812 3.36518 6.27812 4.06991C6.27812 4.77463 5.70478 5.34799 5.00003 5.34799Z" fill="white"/>
</g>
<defs>
<clipPath id="clip0_131_5850">
<rect width="10" height="10" fill="white"/>
</clipPath>
</defs>
</svg>
