<svg width="12" height="10" viewBox="0 0 12 10" fill="none" xmlns="http://www.w3.org/2000/svg">
<path d="M5.71034 3.42105C5.61155 3.47045 5.57133 3.59045 5.62074 3.68924C5.65594 3.75944 5.72653 3.79984 5.79994 3.79984C5.82994 3.79984 5.86055 3.79304 5.88914 3.77884C5.90993 3.76825 6.39975 3.51744 6.39975 2.99985C6.39975 2.71706 6.25036 2.56746 6.14114 2.45845C6.04315 2.36046 5.99974 2.31225 5.99974 2.19984C5.99974 2.08743 6.04315 2.03925 6.14114 1.94123C6.25034 1.83222 6.39975 1.68262 6.39975 1.39983C6.39975 0.882236 5.90996 0.631432 5.88914 0.621026C5.79134 0.572229 5.67195 0.611627 5.62214 0.709432C5.57215 0.807634 5.61155 0.927634 5.70914 0.978235C5.71193 0.979642 5.99974 1.13142 5.99974 1.39983C5.99974 1.51223 5.95634 1.56042 5.85835 1.65844C5.74915 1.76744 5.59974 1.91704 5.59974 2.19984C5.59974 2.48264 5.74913 2.63224 5.85835 2.74124C5.95634 2.83924 5.99974 2.88745 5.99974 2.99985C5.99974 3.26826 5.71196 3.42004 5.71034 3.42105Z" fill="#888888"/>
<path d="M4.40011 3.39997C4.40011 3.66657 4.11631 3.81797 4.10951 3.82156C4.0117 3.87136 3.97191 3.99096 4.0211 4.08935C4.05631 4.15955 4.1269 4.19995 4.20031 4.19995C4.23031 4.19995 4.26091 4.19316 4.28951 4.17895C4.3103 4.16836 4.80012 3.91756 4.80012 3.39997C4.80012 3.11717 4.65073 2.96757 4.54151 2.85856C4.44352 2.76057 4.40011 2.71236 4.40011 2.59995C4.40011 2.33155 4.68771 2.17974 4.68951 2.17895C4.7883 2.12954 4.82852 2.00935 4.77891 1.91054C4.72971 1.81175 4.60971 1.77135 4.51071 1.82115C4.48992 1.83156 4.0001 2.08236 4.0001 2.59995C4.0001 2.88275 4.14949 3.03235 4.25871 3.14136C4.35673 3.23935 4.40011 3.28756 4.40011 3.39997Z" fill="#888888"/>
<path d="M7.60028 3.39979C7.60028 3.66639 7.31668 3.8178 7.30989 3.82138C7.2119 3.87119 7.1721 3.99079 7.22129 4.08918C7.2565 4.15937 7.32709 4.19978 7.4005 4.19978C7.4305 4.19978 7.46111 4.19298 7.4897 4.17878C7.5107 4.16819 8.00031 3.91738 8.00031 3.39979C8.00031 3.11699 7.85092 2.96739 7.7417 2.85839C7.64371 2.76039 7.6003 2.71218 7.6003 2.59978C7.6003 2.33137 7.8879 2.17957 7.88971 2.17877C7.98849 2.12937 8.02871 2.00918 7.9791 1.91037C7.9295 1.81158 7.8095 1.77157 7.7109 1.82098C7.6899 1.83138 7.20029 2.08219 7.20029 2.59978C7.20029 2.88257 7.34968 3.03217 7.4589 3.14118C7.55687 3.23917 7.60028 3.28738 7.60028 3.39979Z" fill="#888888"/>
<path d="M2.79955 5.40004C2.93636 5.40004 3.06215 5.47005 3.13656 5.58723C3.19356 5.67702 3.31096 5.70644 3.40417 5.65403C3.56097 5.56523 3.74317 5.59143 3.86837 5.70662C3.92516 5.75863 4.00658 5.77323 4.07797 5.74502C4.14917 5.71642 4.19797 5.64962 4.20317 5.57282C4.21756 5.36383 4.39156 5.20003 4.59957 5.20003C4.73377 5.20003 4.85837 5.26722 4.93278 5.37963C5.00698 5.49163 5.19219 5.49163 5.26618 5.37963C5.40258 5.17422 5.72077 5.14542 5.89177 5.32942C5.93916 5.38042 6.00938 5.40342 6.07777 5.38942C6.14576 5.37583 6.20217 5.32783 6.22617 5.26263C6.28397 5.10543 6.43397 5.00003 6.59958 5.00003C6.81998 5.00003 6.99958 5.17942 6.99937 5.39502C6.99876 5.39922 6.99658 5.41841 6.99616 5.42263C6.99096 5.49023 7.02037 5.55604 7.07456 5.59703C7.12835 5.63823 7.19995 5.64923 7.26356 5.62602C7.43655 5.56363 7.58437 5.61341 7.69176 5.72943C7.73915 5.78043 7.80956 5.80323 7.87776 5.78943C7.94575 5.77584 8.00217 5.72784 8.02617 5.66263C8.08396 5.50544 8.23396 5.40004 8.39957 5.40004C8.57838 5.40004 8.73637 5.52184 8.78357 5.69624C8.79836 5.75144 8.83637 5.79763 8.88737 5.82304C8.93837 5.84863 8.99798 5.85083 9.05118 5.82965C9.23317 5.75624 9.43539 5.82726 9.53657 5.98705C9.59336 6.07705 9.71097 6.10684 9.80397 6.05406C9.97576 5.95726 10.1772 5.99926 10.2972 6.13286C10.3366 6.17685 10.3914 6.19926 10.446 6.19926C10.4938 6.19926 10.5416 6.18245 10.5796 6.14807C10.6618 6.07426 10.6688 5.94787 10.595 5.86567C10.3899 5.63746 10.058 5.54366 9.76576 5.63648C9.59296 5.46147 9.34157 5.37288 9.09398 5.40728C8.95457 5.16049 8.69097 5.00008 8.39957 5.00008C8.15578 5.00008 7.92878 5.11347 7.77958 5.29769C7.65618 5.23028 7.51598 5.1955 7.37437 5.20049C7.28557 4.85568 6.97176 4.6001 6.59958 4.6001C6.35597 4.6001 6.12938 4.71309 5.98017 4.89689C5.70757 4.7475 5.34218 4.78089 5.09958 4.97589C4.95959 4.8633 4.78419 4.80009 4.59959 4.80009C4.28659 4.80009 4.01199 4.9841 3.88199 5.25248C3.71898 5.18988 3.5346 5.18287 3.3658 5.23628C3.21721 5.08628 3.01541 5.00008 2.7996 5.00008C2.68921 5.00008 2.59961 5.08968 2.59961 5.20007C2.59961 5.31046 2.68914 5.40004 2.79955 5.40004Z" fill="#888888"/>
<path d="M11.8 6.59961H0.199991C0.0896012 6.59961 0 6.68921 0 6.7996C0 7.35099 0.448592 7.7996 1 7.7996H1.21101C1.31081 8.69841 2.07501 9.39961 3.00001 9.39961H8.99999C9.92499 9.39961 10.689 8.69841 10.7888 7.7996H11C11.5514 7.7996 12 7.35101 12 6.7996C12 6.68921 11.9106 6.59961 11.8 6.59961ZM10.9999 7.3996H10.5999C10.4893 7.3996 10.4 7.4892 10.4 7.59959C10.4 8.37159 9.77176 8.99958 8.99996 8.99958H2.99999C2.29579 8.99958 1.71159 8.47718 1.6142 7.79958H9.79998C9.91058 7.79958 9.99997 7.70998 9.99997 7.59959C9.99997 7.4892 9.91058 7.3996 9.79998 7.3996H1C0.739192 7.3996 0.516795 7.2324 0.434201 6.99959H11.5658C11.4832 7.2324 11.2608 7.3996 10.9999 7.3996Z" fill="#888888"/>
<path d="M0.121235 4.98345L2.92123 6.18344C2.94683 6.19443 2.97364 6.19985 2.99984 6.19985C3.07763 6.19985 3.15143 6.15424 3.18385 6.07844C3.22744 5.97684 3.18024 5.85923 3.07885 5.81585L0.278851 4.61585C0.17725 4.57226 0.0594538 4.61946 0.0162587 4.72085C-0.0273583 4.82246 0.0198446 4.94004 0.121235 4.98345Z" fill="#888888"/>
</svg>
