<svg width="9" height="16" viewBox="0 0 9 16" fill="none" xmlns="http://www.w3.org/2000/svg">
<path d="M2.43958 7.02466V15.0511C2.43958 15.1978 2.60265 15.2656 2.68839 15.1545L4.41143 12.9221C4.46792 12.8489 4.56937 12.8489 4.62587 12.9221L6.34891 15.1545C6.43464 15.2656 6.59772 15.1978 6.59772 15.0511V7.02466H2.43958Z" fill="#FFA730"/>
<path d="M3.68396 7.02466H2.43958V15.0511C2.43958 15.1978 2.60265 15.2656 2.68839 15.1545L3.68396 13.8646V7.02466Z" fill="#E58D23"/>
<path d="M6.00062 13.4441C5.89756 13.4441 5.81396 13.3605 5.81396 13.2574V11.1344C5.81396 11.0313 5.89756 10.9478 6.00062 10.9478C6.10369 10.9478 6.18728 11.0313 6.18728 11.1344V13.2574C6.18728 13.3605 6.10369 13.4441 6.00062 13.4441Z" fill="#FFB74B"/>
<path d="M4.45819 11.1503C4.72991 11.1503 4.95018 10.93 4.95018 10.6583C4.95018 10.3865 4.72991 10.1663 4.45819 10.1663C4.18646 10.1663 3.96619 10.3865 3.96619 10.6583C3.96619 10.93 4.18646 11.1503 4.45819 11.1503Z" fill="#E58D23"/>
<path d="M4.50491 10.0833C4.39883 10.083 4.29732 10.0257 4.24148 9.9339C3.89302 9.36089 3.2852 9.01881 2.6155 9.01881C2.40685 9.01881 2.20068 9.053 2.00273 9.12047C1.9701 9.13158 1.93625 9.13724 1.90216 9.13724C1.81919 9.13724 1.73811 9.10299 1.67975 9.04329C1.62086 8.9831 1.58954 8.90345 1.5914 8.81902L1.59205 8.79731C1.59237 8.78881 1.59268 8.78129 1.59268 8.77369C1.59268 7.93274 1.05299 7.20213 0.249705 6.95574C0.149158 6.92488 0.0715708 6.84614 0.0422966 6.7451L0.0403366 6.73844C0.0130534 6.64517 0.0314704 6.54304 0.089521 6.4652C0.324523 6.15348 0.456148 5.78446 0.471268 5.39665C0.487476 4.97931 0.356971 4.55268 0.103769 4.19526C0.0592513 4.13245 0.0470564 4.05128 0.0711042 3.97811L0.0817747 3.94576C0.0830502 3.9419 0.0945607 3.90796 0.104765 3.87806C0.131426 3.79957 0.195543 3.74053 0.276148 3.72028L0.311737 3.71135C1.15755 3.49884 1.74826 2.74057 1.74826 1.86738C1.74826 1.85824 1.74791 1.84919 1.7476 1.8401L1.74695 1.81664C1.74406 1.71062 1.79461 1.61157 1.88215 1.55162C1.88704 1.54826 1.9053 1.53632 1.9053 1.53632L1.91388 1.53078C1.96307 1.50026 2.01941 1.48421 2.07758 1.48421C2.11874 1.48421 2.1589 1.4922 2.19695 1.50804L2.20196 1.51012C2.43214 1.60516 2.67595 1.65335 2.92669 1.65335C3.5338 1.65335 4.10954 1.35911 4.4669 0.866276C4.52526 0.785826 4.6194 0.737793 4.71879 0.737793C4.81754 0.737793 4.90816 0.783057 4.96745 0.861983C5.3306 1.34515 5.88494 1.62224 6.48834 1.62224C6.55999 1.62224 6.63281 1.61829 6.70483 1.61048C6.79269 1.60093 6.88673 1.58264 6.99226 1.55448C7.01605 1.54814 7.04063 1.5449 7.06527 1.5449C7.12478 1.5449 7.18184 1.56323 7.23028 1.59788L7.24101 1.6056C7.24571 1.60896 7.27212 1.62846 7.27212 1.62846C7.34743 1.68337 7.39089 1.77172 7.38847 1.86483L7.38757 1.89996C7.38719 1.91078 7.38685 1.92015 7.38685 1.9296C7.38685 2.76543 7.94639 3.51492 8.74759 3.75222C8.84337 3.7806 8.92018 3.85386 8.95304 3.94818C8.98592 4.04251 8.9712 4.14763 8.91378 4.22935C8.68823 4.55037 8.56902 4.92773 8.56902 5.32056C8.56902 5.72887 8.69697 6.1183 8.9391 6.44682C8.99786 6.52655 9.0151 6.62666 8.98642 6.72145C8.95773 6.81624 8.88792 6.89001 8.79481 6.92379C8.04952 7.19445 7.54626 7.90925 7.54258 8.70255C7.54181 8.87334 7.40234 9.01234 7.23174 9.01234C7.1977 9.01234 7.16395 9.00674 7.13138 8.99566C6.93374 8.92853 6.72785 8.89446 6.51945 8.89446C5.81059 8.89446 5.16562 9.28477 4.83545 9.91327L4.83381 9.91641C4.78048 10.0184 4.67583 10.0824 4.56069 10.0834C4.54116 10.0835 4.52563 10.0837 4.52299 10.0837L4.50491 10.0833Z" fill="#FF624B"/>
<path d="M5.16652 9.01881C4.95787 9.01881 4.75171 9.053 4.55376 9.12047C4.52112 9.13158 4.48727 9.13724 4.45318 9.13724C4.37021 9.13724 4.28914 9.10299 4.23078 9.04329C4.17189 8.9831 4.14056 8.90345 4.14242 8.81902L4.14308 8.79731C4.14339 8.78881 4.1437 8.78129 4.1437 8.77369C4.1437 7.93274 3.60401 7.20213 2.80073 6.95574C2.70018 6.92488 2.62259 6.84614 2.59332 6.7451L2.59136 6.73844C2.56408 6.64517 2.58249 6.54304 2.64054 6.4652C2.87555 6.15349 3.00717 5.78446 3.02229 5.39665C3.0385 4.97931 2.90799 4.55268 2.65479 4.19526C2.61027 4.13245 2.59808 4.05128 2.62213 3.97811L2.6328 3.94576C2.63407 3.9419 2.64558 3.90796 2.65579 3.87806C2.68245 3.79957 2.74657 3.74053 2.82717 3.72028L2.86276 3.71135C3.70857 3.49884 4.29928 2.74057 4.29928 1.86738C4.29928 1.85824 4.29894 1.84919 4.29863 1.8401L4.29797 1.81664C4.29508 1.71062 4.34563 1.61157 4.43318 1.55162C4.43806 1.54826 4.45632 1.53632 4.45632 1.53632L4.46491 1.53078C4.51409 1.50026 4.57043 1.48421 4.62861 1.48421C4.66976 1.48421 4.70993 1.4922 4.74797 1.50804L4.75298 1.51012C4.98316 1.60516 5.22697 1.65335 5.47771 1.65335C5.66904 1.65335 5.85722 1.62398 6.03647 1.56855C5.61341 1.46638 5.23751 1.2213 4.96745 0.861983C4.90816 0.783058 4.81753 0.737793 4.71879 0.737793C4.61943 0.737793 4.52526 0.785795 4.4669 0.866276C4.10957 1.35911 3.53379 1.65335 2.92669 1.65335C2.67595 1.65335 2.43217 1.60516 2.20196 1.51012L2.19695 1.50804C2.1589 1.4922 2.11874 1.48421 2.07758 1.48421C2.01941 1.48421 1.96307 1.50026 1.91388 1.53078L1.9053 1.53632C1.9053 1.53632 1.88704 1.54826 1.88215 1.55162C1.79464 1.61154 1.74409 1.71059 1.74695 1.81664L1.7476 1.8401C1.74791 1.84919 1.74826 1.85824 1.74826 1.86738C1.74826 2.7406 1.15755 3.49887 0.311737 3.71135L0.276148 3.72028C0.195543 3.74053 0.131457 3.79957 0.104765 3.87806C0.0945607 3.90796 0.0830501 3.9419 0.0817746 3.94576L0.0711042 3.97811C0.0470564 4.05128 0.0592513 4.13248 0.103769 4.19526C0.357002 4.55264 0.487507 4.97931 0.471268 5.39665C0.456179 5.78443 0.324523 6.15349 0.089521 6.4652C0.0314704 6.54304 0.0130534 6.6452 0.0403366 6.73844L0.0422966 6.7451C0.0715708 6.84614 0.149158 6.92488 0.249705 6.95574C1.05299 7.20213 1.59268 7.93274 1.59268 8.77369C1.59268 8.78129 1.59237 8.78881 1.59205 8.79731L1.5914 8.81902C1.5895 8.90345 1.62086 8.9831 1.67975 9.04329C1.73811 9.10299 1.81919 9.13724 1.90216 9.13724C1.93628 9.13724 1.97013 9.13161 2.00273 9.12047C2.20068 9.05303 2.40685 9.01881 2.6155 9.01881C3.28517 9.01881 3.89299 9.36089 4.24148 9.9339C4.29732 10.0257 4.39883 10.083 4.50491 10.0833L4.5229 10.0835C4.52554 10.0835 4.54106 10.0834 4.5606 10.0833C4.67574 10.0823 4.78039 10.0183 4.83371 9.91629L4.83536 9.91315C5.02728 9.54783 5.32568 9.26321 5.68105 9.08871C5.51629 9.04298 5.3436 9.01881 5.16652 9.01881Z" fill="#FF4B34"/>
<path d="M4.51873 8.68371C6.32785 8.68371 7.79442 7.21713 7.79442 5.40801C7.79442 3.5989 6.32785 2.13232 4.51873 2.13232C2.70962 2.13232 1.24304 3.5989 1.24304 5.40801C1.24304 7.21713 2.70962 8.68371 4.51873 8.68371Z" fill="#FFC34C"/>
<path d="M4.51873 8.06139C5.98422 8.06139 7.17223 6.87338 7.17223 5.40789C7.17223 3.94241 5.98422 2.75439 4.51873 2.75439C3.05325 2.75439 1.86523 3.94241 1.86523 5.40789C1.86523 6.87338 3.05325 8.06139 4.51873 8.06139Z" fill="#FCE575"/>
<path d="M4.3398 3.77578L3.98805 4.4885C3.95171 4.5621 3.8815 4.61312 3.80027 4.62491L3.01375 4.73921C2.85012 4.76298 2.78476 4.9641 2.90319 5.07952L3.47234 5.6343C3.53111 5.6916 3.55796 5.77413 3.54408 5.85505L3.40972 6.63839C3.38175 6.80138 3.55282 6.92566 3.69919 6.84872L4.40268 6.47889C4.47532 6.44069 4.56211 6.44069 4.63478 6.47889L5.33827 6.84872C5.48464 6.92569 5.65571 6.80138 5.62774 6.63839L5.49338 5.85505C5.4795 5.77413 5.50632 5.6916 5.56512 5.6343L6.13424 5.07952C6.25264 4.9641 6.18731 4.76298 6.02368 4.73921L5.23716 4.62491C5.15593 4.61312 5.08572 4.5621 5.04938 4.4885L4.69763 3.77578C4.62443 3.62748 4.413 3.62748 4.3398 3.77578Z" fill="#FFC34C"/>
<path d="M5.40539 7.67405C5.33157 7.67405 5.26169 7.62996 5.23229 7.55735C5.19369 7.46188 5.23967 7.35318 5.33505 7.31442C5.34314 7.31112 6.14639 6.97629 6.36338 6.30961C6.39527 6.21158 6.50057 6.15795 6.59866 6.1899C6.69666 6.22178 6.75029 6.32712 6.71837 6.42515C6.44697 7.25898 5.51493 7.64437 5.47539 7.66036C5.4524 7.66963 5.42869 7.67405 5.40539 7.67405Z" fill="#FFF4C1"/>
<path d="M4.19735 6.0106C4.21123 5.92968 4.18441 5.84715 4.12561 5.78985L3.55649 5.23507C3.43809 5.11965 3.50342 4.91853 3.66706 4.89476L4.45357 4.78046C4.5348 4.76867 4.60501 4.71762 4.64135 4.64405L4.88376 4.15292L4.69763 3.77578C4.62443 3.62748 4.413 3.62748 4.3398 3.77578L3.98805 4.4885C3.95171 4.5621 3.8815 4.61312 3.80027 4.62491L3.01375 4.73921C2.85012 4.76298 2.78476 4.9641 2.90319 5.07952L3.47231 5.6343C3.53108 5.6916 3.55789 5.77414 3.54405 5.85505L3.40969 6.63839C3.38175 6.80138 3.55279 6.92566 3.69916 6.84872L4.08872 6.64393L4.19735 6.0106Z" fill="#FFA730"/>
<path d="M7.35887 5.40798C7.35887 5.5541 7.34777 5.69764 7.32636 5.83788L7.57297 5.87154C7.59584 5.72029 7.60775 5.56552 7.60775 5.40798C7.60775 4.54723 7.25375 3.76775 6.68386 3.20703L6.58502 3.46157C7.06452 3.97031 7.35887 4.65537 7.35887 5.40798Z" fill="#FFD551"/>
</svg>
