<svg width="20" height="24" viewBox="0 0 20 24" fill="none" xmlns="http://www.w3.org/2000/svg">
<path fill-rule="evenodd" clip-rule="evenodd" d="M13.1928 1.22217H5.43101C3.02884 1.22217 0.958008 3.16933 0.958008 5.57267V18.0712C0.958008 20.6098 2.89351 22.634 5.43101 22.634H14.7515C17.1548 22.634 19.102 20.4757 19.102 18.0712V7.3775L13.1928 1.22217Z" fill="#3451FF" stroke="white" stroke-width="1.5" stroke-linecap="round" stroke-linejoin="round"/>
<path fill-rule="evenodd" clip-rule="evenodd" d="M12.8864 1.2085V4.60233C12.8864 6.259 14.2269 7.603 15.8824 7.6065C17.4189 7.61 18.9904 7.61116 19.0965 7.60416" fill="#3451FF"/>
<path d="M12.8864 1.2085V4.60233C12.8864 6.259 14.2269 7.603 15.8824 7.6065C17.4189 7.61 18.9904 7.61116 19.0965 7.60416" stroke="white" stroke-width="1.5" stroke-linecap="round" stroke-linejoin="round"/>
<path fill-rule="evenodd" clip-rule="evenodd" d="M12.6647 16.1507H6.36816H12.6647Z" fill="#3451FF"/>
<path d="M12.6647 16.1507H6.36816" stroke="white" stroke-width="1.5" stroke-linecap="round" stroke-linejoin="round"/>
<path fill-rule="evenodd" clip-rule="evenodd" d="M10.2829 10.3734H6.36755H10.2829Z" fill="#3451FF"/>
<path d="M10.2829 10.3734H6.36755" stroke="white" stroke-width="1.5" stroke-linecap="round" stroke-linejoin="round"/>
</svg>
