<svg width="11" height="11" viewBox="0 0 11 11" fill="none" xmlns="http://www.w3.org/2000/svg">
<path d="M5.49967 0.0833282C2.50967 0.0833282 0.0830078 2.50999 0.0830078 5.49999C0.0830078 8.48999 2.50967 10.9167 5.49967 10.9167C8.48967 10.9167 10.9163 8.48999 10.9163 5.49999C10.9163 2.50999 8.48967 0.0833282 5.49967 0.0833282ZM3.33301 8.47916C2.97386 8.47916 2.62942 8.33649 2.37547 8.08253C2.12151 7.82858 1.97884 7.48414 1.97884 7.12499C1.97884 6.76585 2.12151 6.42141 2.37547 6.16745C2.62942 5.9135 2.97386 5.77083 3.33301 5.77083C3.69215 5.77083 4.03659 5.9135 4.29055 6.16745C4.5445 6.42141 4.68717 6.76585 4.68717 7.12499C4.68717 7.48414 4.5445 7.82858 4.29055 8.08253C4.03659 8.33649 3.69215 8.47916 3.33301 8.47916ZM4.14551 3.33333C4.14551 2.97418 4.28818 2.62974 4.54213 2.37579C4.79609 2.12183 5.14053 1.97916 5.49967 1.97916C5.85882 1.97916 6.20326 2.12183 6.45721 2.37579C6.71117 2.62974 6.85384 2.97418 6.85384 3.33333C6.85384 3.69248 6.71117 4.03691 6.45721 4.29087C6.20326 4.54482 5.85882 4.68749 5.49967 4.68749C5.14053 4.68749 4.79609 4.54482 4.54213 4.29087C4.28818 4.03691 4.14551 3.69248 4.14551 3.33333ZM7.66634 8.47916C7.30719 8.47916 6.96276 8.33649 6.7088 8.08253C6.45484 7.82858 6.31217 7.48414 6.31217 7.12499C6.31217 6.76585 6.45484 6.42141 6.7088 6.16745C6.96276 5.9135 7.30719 5.77083 7.66634 5.77083C8.02549 5.77083 8.36993 5.9135 8.62388 6.16745C8.87784 6.42141 9.02051 6.76585 9.02051 7.12499C9.02051 7.48414 8.87784 7.82858 8.62388 8.08253C8.36993 8.33649 8.02549 8.47916 7.66634 8.47916Z" fill="#888888"/>
</svg>
