<svg width="16" height="16" viewBox="0 0 16 16" fill="none" xmlns="http://www.w3.org/2000/svg">
<path d="M11.9997 5.33333C11.9997 5.68695 11.8592 6.02609 11.6091 6.27614C11.3591 6.52619 11.02 6.66667 10.6663 6.66667C10.3127 6.66667 9.97358 6.52619 9.72353 6.27614C9.47348 6.02609 9.33301 5.68695 9.33301 5.33333C9.33301 4.97971 9.47348 4.64057 9.72353 4.39052C9.97358 4.14048 10.3127 4 10.6663 4C11.02 4 11.3591 4.14048 11.6091 4.39052C11.8592 4.64057 11.9997 4.97971 11.9997 5.33333Z" fill="black"/>
<path fill-rule="evenodd" clip-rule="evenodd" d="M7.96167 0.833252H8.03767C9.57701 0.833252 10.783 0.833252 11.7243 0.959919C12.687 1.08925 13.447 1.35992 14.0437 1.95592C14.6403 2.55258 14.9103 3.31258 15.0397 4.27592C15.1663 5.21658 15.1663 6.42258 15.1663 7.96192V8.02058C15.1663 9.29325 15.1663 10.3346 15.097 11.1826C15.0277 12.0359 14.8857 12.7472 14.567 13.3392C14.427 13.5999 14.2537 13.8339 14.0437 14.0439C13.447 14.6406 12.687 14.9106 11.7237 15.0399C10.783 15.1666 9.57701 15.1666 8.03767 15.1666H7.96167C6.42234 15.1666 5.21634 15.1666 4.27501 15.0399C3.31234 14.9106 2.55234 14.6399 1.95567 14.0439C1.42701 13.5152 1.15367 12.8572 1.00901 12.0399C0.865675 11.2379 0.839674 10.2399 0.834341 9.00125C0.833008 8.68592 0.833008 8.35258 0.833008 8.00058V7.96192C0.833008 6.42258 0.833008 5.21658 0.959674 4.27525C1.08901 3.31258 1.35967 2.55258 1.95567 1.95592C2.55234 1.35925 3.31234 1.08925 4.27567 0.959919C5.21634 0.833252 6.42234 0.833252 7.96167 0.833252ZM4.40834 1.95059C3.55634 2.06525 3.04234 2.28392 2.66301 2.66325C2.28301 3.04325 2.06501 3.55658 1.95034 4.40925C1.83434 5.27592 1.83301 6.41458 1.83301 7.99992V8.56258L2.50034 7.97792C2.79314 7.72177 3.17235 7.58649 3.56116 7.59949C3.94997 7.61249 4.3193 7.77279 4.59434 8.04792L7.45434 10.9079C7.67628 11.1298 7.96937 11.2663 8.28204 11.2934C8.5947 11.3204 8.9069 11.2364 9.16367 11.0559L9.36234 10.9159C9.73279 10.6556 10.1806 10.5287 10.6326 10.5559C11.0845 10.5832 11.5138 10.763 11.8503 11.0659L13.737 12.7639C13.9277 12.3652 14.0403 11.8412 14.1003 11.1019C14.1657 10.2986 14.1663 9.29725 14.1663 7.99992C14.1663 6.41458 14.165 5.27592 14.049 4.40925C13.9343 3.55658 13.7157 3.04258 13.3363 2.66258C12.9563 2.28325 12.443 2.06525 11.5903 1.95059C10.7237 1.83459 9.58501 1.83325 7.99967 1.83325C6.41434 1.83325 5.27501 1.83459 4.40834 1.95059Z" fill="black"/>
</svg>
