<svg width="7" height="7" viewBox="0 0 7 7" fill="none" xmlns="http://www.w3.org/2000/svg">
<path d="M6.875 1.0625C6.875 0.544733 6.45527 0.125 5.9375 0.125H3.6875C3.63777 0.125 3.59008 0.144754 3.55492 0.179918L0.441314 3.29352C0.0166192 3.71822 0.0166192 4.40678 0.441314 4.83148L2.16852 6.55869C2.59322 6.98338 3.28178 6.98338 3.70648 6.55869L6.82008 3.44508C6.85525 3.40992 6.875 3.36223 6.875 3.3125V1.0625ZM3.76517 0.5H5.9375C6.24816 0.5 6.5 0.75184 6.5 1.0625V3.23483L3.44131 6.29352C3.16307 6.57177 2.71194 6.57177 2.43369 6.29352L0.70648 4.56631C0.428231 4.28806 0.428231 3.83693 0.70648 3.55869L3.76517 0.5ZM5 1.625C5.20711 1.625 5.375 1.79289 5.375 2C5.375 2.20711 5.20711 2.375 5 2.375C4.79289 2.375 4.625 2.20711 4.625 2C4.625 1.79289 4.79289 1.625 5 1.625ZM5 1.25C4.58579 1.25 4.25 1.58579 4.25 2C4.25 2.41421 4.58579 2.75 5 2.75C5.41421 2.75 5.75 2.41421 5.75 2C5.75 1.58579 5.41421 1.25 5 1.25Z" fill="#979797"/>
</svg>
