<svg width="21" height="25" viewBox="0 0 21 25" fill="none" xmlns="http://www.w3.org/2000/svg">
<circle cx="10.5087" cy="6.49087" r="5.57437" stroke="#939393" stroke-width="1.5" stroke-linecap="round" stroke-linejoin="round"/>
<path fill-rule="evenodd" clip-rule="evenodd" d="M1.66664 19.818C1.66515 19.4261 1.75279 19.039 1.92294 18.686C2.45688 17.6181 3.9626 17.0522 5.21203 16.7959C6.11312 16.6036 7.02665 16.4751 7.94582 16.4114C9.6476 16.2619 11.3592 16.2619 13.061 16.4114C13.9801 16.4758 14.8936 16.6043 15.7948 16.7959C17.0442 17.0522 18.5499 17.5647 19.0839 18.686C19.4261 19.4056 19.4261 20.241 19.0839 20.9606C18.5499 22.0819 17.0442 22.5945 15.7948 22.8401C14.8948 23.0404 13.9809 23.1724 13.061 23.2352C11.6759 23.3527 10.2843 23.3741 8.89624 23.2993C8.57588 23.2993 8.26619 23.2993 7.94582 23.2352C7.02936 23.1732 6.119 23.0411 5.22271 22.8401C3.9626 22.5945 2.46756 22.0819 1.92294 20.9606C1.75366 20.6035 1.6661 20.2132 1.66664 19.818Z" stroke="#939393" stroke-width="1.5" stroke-linecap="round" stroke-linejoin="round"/>
</svg>
