<svg width="21" height="25" viewBox="0 0 21 25" fill="none" xmlns="http://www.w3.org/2000/svg">
<circle cx="10.5088" cy="6.49112" r="5.57437" stroke="#939393" stroke-width="1.5" stroke-linecap="round" stroke-linejoin="round"/>
<path fill-rule="evenodd" clip-rule="evenodd" d="M1.66668 19.8182C1.66518 19.4264 1.75282 19.0393 1.92297 18.6863C2.45691 17.6184 3.96263 17.0524 5.21206 16.7961C6.11315 16.6038 7.02668 16.4754 7.94585 16.4117C9.64764 16.2622 11.3592 16.2622 13.061 16.4117C13.9801 16.4761 14.8936 16.6045 15.7948 16.7961C17.0443 17.0524 18.55 17.565 19.0839 18.6863C19.4261 19.4059 19.4261 20.2413 19.0839 20.9609C18.55 22.0822 17.0443 22.5947 15.7948 22.8404C14.8948 23.0406 13.9809 23.1727 13.061 23.2355C11.6759 23.3529 10.2843 23.3743 8.89627 23.2995C8.57591 23.2995 8.26622 23.2995 7.94585 23.2355C7.02939 23.1735 6.11903 23.0414 5.22274 22.8404C3.96263 22.5947 2.46759 22.0822 1.92297 20.9609C1.75369 20.6038 1.66613 20.2134 1.66668 19.8182Z" stroke="#939393" stroke-width="1.5" stroke-linecap="round" stroke-linejoin="round"/>
</svg>
