<svg width="14" height="16" viewBox="0 0 14 16" fill="none" xmlns="http://www.w3.org/2000/svg">
<g opacity="0.5">
<path fill-rule="evenodd" clip-rule="evenodd" d="M5.21688 0.317305C4.66699 0.804972 4.66699 1.69708 4.66699 3.48053V12.0734C4.66699 13.8569 4.66699 14.749 5.21688 15.2366C5.76677 15.7243 6.60755 15.5781 8.2891 15.2849L10.1013 14.9691C11.9633 14.644 12.8943 14.4814 13.4473 13.7985C14.0003 13.1149 14.0003 12.1271 14.0003 10.1507V5.40319C14.0003 3.42764 14.0003 2.43986 13.4481 1.75619C12.8943 1.0733 11.9625 0.910749 10.1005 0.586416L8.28988 0.269861C6.60833 -0.0233616 5.76755 -0.169584 5.21766 0.318083L5.21688 0.317305ZM7.00033 6.35286C7.32233 6.35286 7.58366 6.62586 7.58366 6.96264V8.5913C7.58366 8.92808 7.32233 9.20108 7.00033 9.20108C6.67833 9.20108 6.41699 8.92808 6.41699 8.5913V6.96264C6.41699 6.62586 6.67833 6.35286 7.00033 6.35286Z" fill="#888888"/>
<path d="M3.53656 1.9436C1.93589 1.94594 1.10133 1.98094 0.569333 2.51294C9.27183e-08 3.08227 0 3.99849 0 5.83249V9.72138C0 11.5546 9.27183e-08 12.4708 0.569333 13.0409C1.10133 13.5722 1.93589 13.6079 3.53656 13.6103C3.5 13.1249 3.5 12.5649 3.5 11.959V3.59483C3.5 2.98816 3.5 2.42816 3.53656 1.9436Z" fill="#888888"/>
</g>
</svg>
