<svg width="28" height="28" viewBox="0 0 28 28" fill="none" xmlns="http://www.w3.org/2000/svg">
<path d="M27.3338 14.1396C27.3338 16.7768 26.5518 19.3547 25.0866 21.5475C23.6215 23.7402 21.539 25.4493 19.1026 26.4585C16.6661 27.4677 13.9851 27.7317 11.3986 27.2172C8.81208 26.7028 6.43621 25.4328 4.57143 23.568C2.70665 21.7033 1.43672 19.3274 0.922229 16.7409C0.407737 14.1544 0.671793 11.4733 1.681 9.0369C2.69021 6.60045 4.39925 4.51798 6.592 3.05283C8.78475 1.58768 11.3627 0.805664 13.9999 0.805664C15.751 0.805443 17.485 1.15018 19.1028 1.8202C20.7207 2.49021 22.1907 3.47237 23.4289 4.71058C24.6671 5.94879 25.6493 7.41879 26.3193 9.03664C26.9893 10.6545 27.334 12.3885 27.3338 14.1396ZM22.5338 8.00903C22.5329 7.49026 22.3264 6.993 21.9596 6.62617C21.5928 6.25935 21.0955 6.05287 20.5768 6.05198H10.1683C9.64943 6.05243 9.15191 6.25876 8.78499 6.62568C8.41806 6.9926 8.21173 7.49013 8.21129 8.00903V16.9151H17.5839C17.8704 16.9553 18.1327 17.0975 18.3227 17.3157C18.5127 17.5338 18.6176 17.8132 18.618 18.1025V20.0326C18.618 20.2307 18.545 20.4217 18.4129 20.5693C18.2809 20.7169 18.0991 20.8107 17.9022 20.8326H17.7237C17.5677 20.8155 17.42 20.7531 17.299 20.6532C17.1779 20.5532 17.0888 20.4201 17.0424 20.2701C16.996 20.1201 16.9946 19.9599 17.0381 19.809C17.0816 19.6582 17.1683 19.5234 17.2875 19.4212C17.391 19.3264 17.4634 19.2024 17.495 19.0656C17.5265 18.9287 17.5159 18.7856 17.4643 18.6549C17.4131 18.5348 17.3276 18.4325 17.2186 18.3606C17.1096 18.2887 16.9819 18.2505 16.8513 18.2507H7.58813C7.06886 18.2507 6.57086 18.457 6.20369 18.8242C5.83651 19.1913 5.63023 19.6893 5.63023 20.2086C5.63023 20.7279 5.83651 21.2259 6.20369 21.5931C6.57086 21.9602 7.06886 22.1665 7.58813 22.1665H17.6732C17.7668 22.1728 17.8608 22.1728 17.9544 22.1665H17.9949C18.0594 22.1663 18.1235 22.1567 18.1852 22.1379C18.65 22.0549 19.0744 21.8207 19.3923 21.4716C19.7103 21.1226 19.9041 20.6783 19.9435 20.2078L19.9519 10.0351C20.4021 10.0637 20.8533 9.99654 21.2757 9.83809C21.6452 9.69532 21.9629 9.44434 22.1874 9.11799C22.4119 8.79164 22.5326 8.40513 22.5338 8.00903ZM17.9949 8.79051H10.0151V10.1261H17.9949V8.79051ZM17.9949 11.4313H10.0151V12.7652H17.9949V11.4313ZM17.9949 14.0739H10.0151V15.4078H17.9949V14.0739ZM21.1999 8.01072C21.1995 8.1378 21.1605 8.26176 21.088 8.36614C21.0155 8.47052 20.913 8.55039 20.794 8.59514L20.7822 8.59682L20.7536 8.61198C20.4951 8.69519 20.2223 8.72499 19.9519 8.69956V8.00903C19.9517 7.91409 19.9733 7.82037 20.0151 7.7351C20.0568 7.64983 20.1176 7.57529 20.1928 7.51724C20.3021 7.43113 20.4376 7.3848 20.5768 7.38588C20.742 7.38588 20.9005 7.45153 21.0174 7.56839C21.1343 7.68526 21.1999 7.84545 21.1999 8.01072Z" fill="white"/>
</svg>
