<svg width="20" height="20" viewBox="0 0 20 20" fill="none" xmlns="http://www.w3.org/2000/svg">
<mask id="mask0_292_383" style="mask-type:alpha" maskUnits="userSpaceOnUse" x="1" y="1" width="18" height="19">
<path fill-rule="evenodd" clip-rule="evenodd" d="M10.1943 1.47656C14.7914 1.47656 18.5181 5.20325 18.5181 9.80036C18.5181 14.3975 14.7914 18.1242 10.1943 18.1242C8.29571 18.1242 6.5456 17.4885 5.14516 16.4185L2.63634 18.9208L2.55774 18.99C2.2305 19.2438 1.75784 19.22 1.45783 18.9192C1.13281 18.5934 1.1335 18.0657 1.45936 17.7407L3.92752 15.279C2.64665 13.8151 1.87047 11.8984 1.87047 9.80036C1.87047 5.20325 5.59716 1.47656 10.1943 1.47656ZM10.1939 3.14453C6.51731 3.14453 3.53681 6.12503 3.53681 9.80166C3.53681 13.4783 6.51731 16.4588 10.1939 16.4588C13.8706 16.4588 16.8511 13.4783 16.8511 9.80166C16.8511 6.12503 13.8706 3.14453 10.1939 3.14453Z" fill="white"/>
</mask>
<g mask="url(#mask0_292_383)">
<rect width="20" height="20" transform="matrix(-1 0 0 1 20 0)" fill="#939393"/>
</g>
</svg>
