<svg width="8" height="8" viewBox="0 0 8 8" fill="none" xmlns="http://www.w3.org/2000/svg">
<path d="M3.956 7.00593L2.272 7.90873L2.2324 7.92633C1.9464 8.03433 1.6764 8.01273 1.4712 7.82953C1.2784 7.65753 1.2084 7.41113 1.2484 7.12753L1.53 5.18353L0.258 3.84673C0.0379997 3.62273 -0.0480003 3.34753 0.0259997 3.05953C0.108 2.73993 0.378 2.55633 0.7664 2.49473L2.4572 2.23953L3.3424 0.405531C3.48 0.146731 3.6944 -0.0064687 3.9644 0.000731298C4.2284 0.0075313 4.4376 0.169531 4.6016 0.457931L5.4576 2.25233L7.3536 2.51553C7.6548 2.56753 7.8768 2.72433 7.9656 2.98593C8.0536 3.24713 7.9696 3.51113 7.7428 3.78073L6.3668 5.18473L6.6756 7.12713C6.7244 7.46313 6.6656 7.72913 6.4412 7.88713C6.2388 8.02993 5.9856 8.02993 5.6944 7.92993L5.6464 7.90873L3.956 7.00593Z" fill="url(#paint0_linear_150_11706)"/>
<defs>
<linearGradient id="paint0_linear_150_11706" x1="3.99994" y1="0.000488281" x2="3.99994" y2="8.00029" gradientUnits="userSpaceOnUse">
<stop stop-color="#FFD551"/>
<stop offset="1" stop-color="#E58D23"/>
</linearGradient>
</defs>
</svg>
