<svg width="14" height="14" viewBox="0 0 14 14" fill="none" xmlns="http://www.w3.org/2000/svg">
<path d="M5.66699 2.50016V2.66683H8.33366V2.50016C8.33366 2.14654 8.19318 1.8074 7.94313 1.55735C7.69309 1.30731 7.35395 1.16683 7.00033 1.16683C6.6467 1.16683 6.30757 1.30731 6.05752 1.55735C5.80747 1.8074 5.66699 2.14654 5.66699 2.50016ZM4.83366 2.66683V2.50016C4.83366 1.92553 5.06193 1.37443 5.46826 0.968098C5.87459 0.561769 6.42569 0.333496 7.00033 0.333496C7.57496 0.333496 8.12606 0.561769 8.53239 0.968098C8.93872 1.37443 9.16699 1.92553 9.16699 2.50016V2.66683H12.917C13.0275 2.66683 13.1335 2.71073 13.2116 2.78887C13.2898 2.86701 13.3337 2.97299 13.3337 3.0835C13.3337 3.194 13.2898 3.29998 13.2116 3.37812C13.1335 3.45626 13.0275 3.50016 12.917 3.50016H11.9447L11.278 11.4522C11.2273 12.056 10.9517 12.6188 10.5056 13.029C10.0595 13.4392 9.47565 13.6669 8.86966 13.6668H5.13099C4.52506 13.6668 3.94125 13.4391 3.49526 13.0289C3.04927 12.6187 2.77364 12.056 2.72299 11.4522L2.05633 3.50016H1.08366C0.973152 3.50016 0.867171 3.45626 0.789031 3.37812C0.710891 3.29998 0.666992 3.194 0.666992 3.0835C0.666992 2.97299 0.710891 2.86701 0.789031 2.78887C0.867171 2.71073 0.973152 2.66683 1.08366 2.66683H4.83366ZM6.16699 5.75016C6.16699 5.69545 6.15622 5.64126 6.13528 5.59071C6.11434 5.54016 6.08364 5.49423 6.04495 5.45553C6.00626 5.41684 5.96033 5.38615 5.90978 5.36521C5.85922 5.34427 5.80504 5.3335 5.75033 5.3335C5.69561 5.3335 5.64143 5.34427 5.59087 5.36521C5.54032 5.38615 5.49439 5.41684 5.4557 5.45553C5.41701 5.49423 5.38632 5.54016 5.36538 5.59071C5.34444 5.64126 5.33366 5.69545 5.33366 5.75016V10.5835C5.33366 10.6382 5.34444 10.6924 5.36538 10.7429C5.38632 10.7935 5.41701 10.8394 5.4557 10.8781C5.49439 10.9168 5.54032 10.9475 5.59087 10.9684C5.64143 10.9894 5.69561 11.0002 5.75033 11.0002C5.80504 11.0002 5.85922 10.9894 5.90978 10.9684C5.96033 10.9475 6.00626 10.9168 6.04495 10.8781C6.08364 10.8394 6.11434 10.7935 6.13528 10.7429C6.15622 10.6924 6.16699 10.6382 6.16699 10.5835V5.75016ZM8.25033 5.3335C8.02033 5.3335 7.83366 5.52016 7.83366 5.75016V10.5835C7.83366 10.694 7.87756 10.8 7.9557 10.8781C8.03384 10.9563 8.13982 11.0002 8.25033 11.0002C8.36083 11.0002 8.46681 10.9563 8.54495 10.8781C8.62309 10.8 8.66699 10.694 8.66699 10.5835V5.75016C8.66699 5.52016 8.48033 5.3335 8.25033 5.3335Z" fill="#EA213B"/>
</svg>
