<svg width="22" height="21" viewBox="0 0 22 21" fill="none" xmlns="http://www.w3.org/2000/svg">
<path d="M7.5625 11.8125L8.53187 12.7378L10.3125 11.0447V19.0312H11.6875V11.0447L13.4681 12.7378L14.4375 11.8125L11 8.53125L7.5625 11.8125Z" fill="#888888"/>
<path d="M16.1563 14.4375H15.8125V13.125H16.1563C16.9768 13.1563 17.7767 12.8752 18.3801 12.3436C18.9835 11.8119 19.341 11.0732 19.3738 10.29C19.4066 9.50678 19.1121 8.74319 18.5551 8.16722C17.9982 7.59125 17.2243 7.25007 16.4038 7.21874H15.8125L15.7438 6.68062C15.5912 5.57579 15.0232 4.56155 14.1454 3.82684C13.2676 3.09213 12.14 2.68704 10.9725 2.68704C9.80508 2.68704 8.67743 3.09213 7.79965 3.82684C6.92187 4.56155 6.3538 5.57579 6.20128 6.68062L6.18753 7.21874H5.59628C4.77576 7.25007 4.00189 7.59125 3.44491 8.16722C2.88793 8.74319 2.59345 9.50678 2.62627 10.29C2.6591 11.0732 3.01652 11.8119 3.61992 12.3436C4.22332 12.8752 5.02326 13.1563 5.84378 13.125H6.18753V14.4375H5.84378C4.7413 14.4308 3.68033 14.0354 2.86483 13.3272C2.04933 12.619 1.53687 11.648 1.42599 10.601C1.31511 9.55393 1.61362 8.50472 2.26414 7.65505C2.91465 6.80539 3.87126 6.21526 4.95002 5.99812C5.24682 4.67677 6.00935 3.49254 7.11037 2.64302C8.21138 1.7935 9.5843 1.33008 11 1.33008C12.4158 1.33008 13.7887 1.7935 14.8897 2.64302C15.9907 3.49254 16.7532 4.67677 17.05 5.99812C18.1288 6.21526 19.0854 6.80539 19.7359 7.65505C20.3864 8.50472 20.6849 9.55393 20.5741 10.601C20.4632 11.648 19.9507 12.619 19.1352 13.3272C18.3197 14.0354 17.2587 14.4308 16.1563 14.4375Z" fill="#888888"/>
</svg>
